<svg width="60" height="60" viewBox="0 0 60 60" fill="none" xmlns="http://www.w3.org/2000/svg">
<g id="logo-twitter 1">
<path id="Vector" d="M58.125 12.8321C56.015 13.7489 53.7825 14.3529 51.498 14.625C53.8988 13.2192 55.7043 10.9858 56.5758 8.34377C54.306 9.67103 51.8268 10.6023 49.2445 11.0977C48.1571 9.95806 46.8494 9.05147 45.4007 8.433C43.952 7.81453 42.3927 7.49711 40.8176 7.50002C34.4402 7.50002 29.2793 12.586 29.2793 18.8555C29.2748 19.7276 29.3747 20.597 29.577 21.4453C25.0039 21.2309 20.526 20.0644 16.4297 18.0202C12.3333 15.9761 8.70877 13.0994 5.78789 9.57424C4.76317 11.3017 4.22125 13.2727 4.21875 15.2813C4.21875 19.2188 6.27305 22.6992 9.375 24.7383C7.53718 24.6947 5.73702 24.2083 4.12734 23.3203V23.461C4.12734 28.9688 8.11172 33.5508 13.3852 34.5938C12.3935 34.8581 11.3716 34.9921 10.3453 34.9922C9.61708 34.9935 8.89051 34.9228 8.17617 34.7813C9.64219 39.293 13.909 42.5742 18.9633 42.668C14.8563 45.8331 9.81401 47.5439 4.62891 47.5313C3.70854 47.5299 2.78902 47.4751 1.875 47.3672C7.14982 50.7354 13.2814 52.5171 19.5398 52.5C40.793 52.5 52.4039 35.1914 52.4039 20.1797C52.4039 19.6875 52.391 19.1953 52.3676 18.7149C54.6212 17.1118 56.5709 15.1197 58.125 12.8321Z" fill="black"/>
</g>
</svg>
