<svg width="60" height="60" viewBox="0 0 60 60" fill="none" xmlns="http://www.w3.org/2000/svg">
<g id="logo-youtube 1" clip-path="url(#clip0_2_129)">
<path id="Vector" d="M59.6063 17.4363C59.6063 12.1629 55.7274 7.9207 50.9344 7.9207C44.4422 7.61719 37.8211 7.5 31.0547 7.5H28.9453C22.1953 7.5 15.5625 7.61719 9.07032 7.92187C4.28907 7.92187 0.410167 12.1875 0.410167 17.4609C0.117198 21.6316 -0.00702053 25.8035 1.07223e-05 29.9754C-0.011708 34.1473 0.121105 38.323 0.398448 42.5027C0.398448 47.7762 4.27735 52.0535 9.05861 52.0535C15.8789 52.3699 22.875 52.5105 29.9883 52.4988C37.1133 52.5223 44.0899 52.3738 50.918 52.0535C55.7109 52.0535 59.5899 47.7762 59.5899 42.5027C59.8711 38.3191 60 34.1473 59.9883 29.9637C60.0149 25.7918 59.8875 21.616 59.6063 17.4363ZM24.2578 41.4715V18.4441L41.25 29.952L24.2578 41.4715Z" fill="black"/>
</g>
<defs>
<clipPath id="clip0_2_129">
<rect width="60" height="60" fill="white"/>
</clipPath>
</defs>
</svg>
