<svg width="33" height="34" viewBox="0 0 33 34" fill="none" xmlns="http://www.w3.org/2000/svg">
<g id="Search Icon">
<path id="Vector" d="M26.95 29.375L18.2875 20.7125C17.6 21.2625 16.8094 21.6979 15.9156 22.0188C15.0219 22.3396 14.0708 22.5 13.0625 22.5C10.5646 22.5 8.45052 21.6349 6.72031 19.9047C4.9901 18.1745 4.125 16.0604 4.125 13.5625C4.125 11.0646 4.9901 8.95052 6.72031 7.22031C8.45052 5.4901 10.5646 4.625 13.0625 4.625C15.5604 4.625 17.6745 5.4901 19.4047 7.22031C21.1349 8.95052 22 11.0646 22 13.5625C22 14.5708 21.8396 15.5219 21.5188 16.4156C21.1979 17.3094 20.7625 18.1 20.2125 18.7875L28.875 27.45L26.95 29.375ZM13.0625 19.75C14.7812 19.75 16.2422 19.1484 17.4453 17.9453C18.6484 16.7422 19.25 15.2812 19.25 13.5625C19.25 11.8438 18.6484 10.3828 17.4453 9.17969C16.2422 7.97656 14.7812 7.375 13.0625 7.375C11.3438 7.375 9.88281 7.97656 8.67969 9.17969C7.47656 10.3828 6.875 11.8438 6.875 13.5625C6.875 15.2812 7.47656 16.7422 8.67969 17.9453C9.88281 19.1484 11.3438 19.75 13.0625 19.75Z" fill="black"/>
</g>
</svg>
